<svg xmlns="http://www.w3.org/2000/svg" viewBox="0 0 494 276" preserveAspectRatio="xMidYMid meet">
 <g fill="#000000">
  <path d="M75.90 226.07 c-5.60 -7.04 -8.58 -13.03 -10.70 -21.61 -0.68 -2.84 -1.65 -9.08 -1.65 -10.73 0 -1.51 -0.11 -1.58 -4.67 -2.66 -6 -1.40 -9.26 -3.66 -11.27 -7.79 -0.61 -1.18 -2.30 -6.07 -3.81 -10.81 -2.44 -7.72 -3.05 -9.26 -5.67 -14 -2.73 -5.03 -5.28 -10.95 -6.75 -15.65 l-0.61 -2.05 -1.29 1.01 c-1.94 1.51 -2.69 1.83 -4.38 1.83 l-1.51 0 0.22 -3.48 c0.14 -1.94 0.72 -5.42 1.29 -7.79 l1.04 -4.24 -0.90 -1.33 c-2.84 -4.13 -7.47 -15.94 -8.90 -22.65 -1.29 -6.03 -1.54 -11.88 -0.75 -15.55 1.44 -6.43 4.74 -10.55 12.78 -15.87 4.56 -3.05 4.99 -3.45 7.50 -6.82 1.47 -1.97 4.38 -5.35 6.46 -7.50 8.33 -8.54 15.90 -12.78 28.51 -16.01 8.51 -2.15 11.81 -2.58 22.51 -2.76 13.57 -0.25 15.47 0 38.77 5.49 13.10 3.09 22.08 6.61 31.05 12.17 15.01 9.30 34.21 25.71 37.55 32.13 0.72 1.36 0.86 2.15 0.86 5.03 0 4.34 0.83 3.12 -12.21 18.35 -2.76 3.20 -7.50 8.76 -10.55 12.31 -6.96 8.15 -9.41 10.95 -11.85 13.57 -1.94 2.08 -1.94 2.08 -3.99 2.08 -3.30 0 -6.10 -1.51 -10.38 -5.53 l-2.30 -2.19 0.86 1.54 c1.11 2.01 5.35 6.61 7.40 8.01 1.36 0.97 1.54 1.22 1.54 2.44 0 1.15 -0.61 2.33 -3.30 6.53 -1.80 2.84 -6.28 10.09 -9.91 16.12 -8.04 13.32 -9.91 16.19 -12.96 20.10 -3.09 3.99 -8.94 9.77 -14.68 14.43 -7.14 5.89 -7.86 6.39 -9.26 6.39 -1.18 0 -1.22 -0.07 -1.22 -1.33 0 -0.86 0.54 -2.30 1.65 -4.38 3.73 -6.89 6.61 -11.09 11.63 -17.09 7.04 -8.36 12.64 -16.08 16.84 -23.26 l1.83 -3.16 -1.51 0.93 c-3.16 1.94 -6.93 3.02 -10.59 3.05 -1.87 0 -1.90 -0.04 -1.90 -1.04 0 -0.72 0.65 -1.97 2.01 -3.88 6.82 -9.51 9.44 -21.58 11.63 -53.42 1.15 -16.91 0.97 -22.94 -0.93 -29.58 -1.69 -5.74 -5.53 -12.60 -9.62 -17.12 -3.55 -3.99 -9.73 -7.90 -15.11 -9.62 -6.71 -2.15 -11.06 -2.51 -15.11 -1.26 -9.62 2.91 -16.08 11.56 -17.45 23.37 l-0.43 3.52 -1.18 0 -1.18 0 0 -3.91 c0 -6 1.18 -11.45 3.34 -15.58 1.26 -2.37 5.06 -6.14 7.86 -7.79 l1.90 -1.11 -2.33 0.22 c-9.91 0.93 -15.76 2.66 -22.40 6.57 -7.97 4.74 -14.50 13.21 -18.13 23.52 -1.44 4.06 -1.40 4.49 0.07 1.62 1.90 -3.70 5.06 -5.31 10.48 -5.31 1.83 0 2.33 -0.11 2.33 -0.54 0 -0.83 2.58 -0.72 3.37 0.14 1.18 1.33 2.08 4.42 2.33 8.04 l0.22 3.55 0.97 -0.75 c0.50 -0.43 1.44 -0.75 2.05 -0.75 1.04 0 1.11 0.07 1.11 1.26 0 1.40 -0.72 2.23 -3.48 3.99 -1.11 0.72 -1.87 1.65 -2.87 3.52 -2.44 4.74 -6.43 7.75 -13.46 10.27 -1.65 0.57 -3.59 1.08 -4.31 1.08 -1.29 0 -1.36 -0.07 -1.36 -1.08 0 -0.79 0.54 -1.83 1.83 -3.48 2.55 -3.34 2.69 -3.88 1.58 -5.21 -1.51 -1.80 -2.41 -3.88 -2.62 -6.10 -0.07 -1.15 -0.22 -2.05 -0.29 -1.97 -0.07 0.07 -0.29 2.98 -0.50 6.50 -0.43 7.40 -0.83 8.83 -3.81 14.40 -1.08 2.01 -1.94 3.77 -1.94 3.95 0 0.14 0.83 -0.47 1.80 -1.40 3.02 -2.84 6.82 -4.20 13.64 -4.92 2.84 -0.29 4.81 -0.29 7.47 0 5.78 0.61 8.58 2.05 13.21 6.64 3.09 3.09 3.52 4.38 3.30 9.26 -0.14 2.98 -0.29 3.66 -1.62 6.57 -1.08 2.33 -1.62 4.02 -1.87 6.10 -0.25 2.05 -0.90 4.13 -2.19 7.25 -0.97 2.37 -1.80 4.81 -1.80 5.39 0.04 3.16 3.63 6.03 10.59 8.36 3.95 1.29 5.10 1.54 7.54 1.54 5.39 0.04 8.65 -1.83 16.30 -9.26 2.69 -2.62 5.42 -4.99 6.03 -5.35 0.68 -0.32 2.01 -0.57 3.30 -0.57 1.94 0 2.23 0.11 3.02 1.08 1.11 1.33 1.51 3.95 1.22 8.11 -0.43 5.96 -3.55 12.82 -8.29 18.09 -0.72 0.79 -0.29 0.50 1.22 -0.75 1.29 -1.11 3.30 -3.16 4.49 -4.56 1.87 -2.23 2.30 -2.58 3.30 -2.58 1.11 0 1.18 0.07 1.18 1.26 0 1.90 -2.01 5.53 -7.68 13.97 -7.29 10.81 -10.27 15.94 -12.74 21.90 -0.83 1.94 -1.47 3.70 -1.47 3.88 0 0.54 2.12 -1.11 5.24 -4.09 2.37 -2.30 3.12 -2.80 4.06 -2.80 1.01 0 1.11 0.11 1.11 1.08 0 0.61 -0.68 2.37 -1.47 3.88 -3.52 6.46 -8.11 14.18 -10.66 17.84 l-2.76 3.95 -1.76 0.11 c-1.65 0.11 -1.83 0.04 -3.23 -1.47 -2.15 -2.33 -4.52 -6.68 -5.96 -11.06 l-1.29 -3.81 -0.83 0.65 c-1.26 1.01 -4.63 0.93 -5.96 -0.11 l-1.01 -0.79 0.22 4.63 c0.29 5.67 1.04 10.73 2.23 15.19 0.50 1.87 0.90 3.84 0.90 4.42 0 0.97 -0.11 1.04 -1.33 1.04 -1.18 -0.04 -1.54 -0.25 -2.84 -1.90z m3.99 -40.96 c1.58 -0.50 5.13 -2.15 7.90 -3.66 2.76 -1.51 6.53 -3.48 8.33 -4.38 3.20 -1.54 4.27 -2.33 2.05 -1.47 -0.57 0.22 -2.69 0.75 -4.70 1.22 -2.84 0.65 -4.24 1.22 -6.46 2.55 -6.57 3.99 -9.84 4.95 -16.98 4.95 -5.28 0 -8.36 -0.50 -10.84 -1.80 -0.54 -0.29 -1.01 -0.43 -1.01 -0.32 0 0.07 0.75 0.54 1.72 1.01 6.21 3.12 13.97 3.88 20 1.90z m-12.31 -14.72 c2.76 -0.97 5.92 -4.34 7.43 -7.86 l0.72 -1.69 -1.80 -0.93 c-1.01 -0.50 -2.91 -1.62 -4.24 -2.44 l-2.41 -1.54 -1.08 0.86 c-2.66 2.23 -6.18 2.87 -8.94 1.58 -5.03 -2.30 -10.23 -9.73 -13.07 -18.70 -0.57 -1.87 -1.58 -4.95 -2.19 -6.82 -0.61 -1.87 -1.22 -3.81 -1.33 -4.31 -0.11 -0.50 -0.43 -1.18 -0.75 -1.51 -0.39 -0.47 -0.57 -2.01 -0.75 -5.92 l-0.25 -5.31 -0.68 2.87 c-1.04 4.24 -0.97 12.06 0.14 16.69 2.84 11.49 8.11 22.22 14.07 28.51 5.42 5.74 10.81 8.08 15.11 6.53z m19.67 -3.34 c0 -0.68 -0.11 -0.86 -0.36 -0.61 -0.22 0.22 -0.29 0.65 -0.14 0.97 0.32 0.86 0.50 0.75 0.50 -0.36z m101.56 -69.97 c0.75 -2.41 0.57 -3.81 -1.01 -6.89 -2.33 -4.63 -10.77 -12.46 -22.12 -20.54 -9.91 -7.04 -19.75 -12.17 -29.15 -15.22 -2.23 -0.72 -4.13 -1.29 -4.24 -1.29 -0.14 0 1.18 1.33 2.87 2.94 8.19 7.72 11.42 14.83 14.86 32.42 1.97 9.94 2.69 12.46 2.33 8.08 -0.72 -9.15 -4.67 -23.77 -8.44 -31.31 -0.79 -1.54 -1.40 -3.27 -1.40 -3.88 0 -0.97 0.11 -1.08 1.18 -1.08 1.47 0 1.97 0.54 4.92 5.03 2.58 3.99 5.74 10.38 7.90 15.98 3.63 9.44 5.85 15.11 6.10 15.37 0.32 0.36 1.87 -3.41 2.87 -7.04 0.43 -1.40 0.86 -4.02 0.97 -5.82 0.18 -2.87 0.07 -3.55 -0.75 -6.03 -0.50 -1.51 -0.93 -3.20 -0.93 -3.66 0 -0.79 0.14 -0.90 1.26 -0.90 1.65 0 3.73 1.08 9.08 4.63 5.39 3.59 9.15 7.50 11.09 11.42 1.26 2.55 1.36 3.02 1.47 6.50 0.07 2.05 0.22 3.63 0.32 3.55 0.07 -0.11 0.47 -1.11 0.79 -2.26z m-148.56 -13.07 c1.01 -3.63 2.37 -8.01 3.05 -9.66 0.68 -1.69 1.22 -3.09 1.22 -3.16 0 -0.07 -0.25 -0.11 -0.54 -0.11 -0.36 0 -0.54 -0.36 -0.54 -1.15 -0.04 -1.15 -0.04 -1.15 -0.57 -0.47 -0.83 1.08 -3.02 5.46 -3.95 7.97 -1.76 4.67 -2.91 12.13 -2.44 16.08 l0.25 2.15 0.86 -2.51 c0.47 -1.36 1.69 -5.49 2.66 -9.15z"/>
  <path d="M136.78 187.51 c0 -1.40 0.25 -1.83 8.36 -15.37 8.36 -13.93 14.47 -23.01 20.68 -30.84 10.99 -13.75 30.84 -35.65 39.74 -43.84 13.28 -12.21 20.50 -17.30 28.33 -19.96 1.97 -0.68 3.27 -0.86 6.03 -0.86 3.48 0 3.55 0.04 4.45 1.08 0.90 1.04 0.90 1.11 0.72 5.56 -0.18 4.63 -0.14 4.49 -7.04 38.06 -2.73 13.43 -5.21 26.50 -6.14 32.49 -1.26 8.33 -1.15 8.62 3.63 8.08 26.46 -2.94 93.81 -2.87 136.57 0.18 16.51 1.18 34.14 2.98 45.45 4.67 3.37 0.50 6.21 0.90 6.28 0.90 0.07 0 0.14 0.57 0.14 1.29 l0 1.33 -6.71 -0.25 c-3.73 -0.14 -9.73 -0.39 -13.39 -0.57 -67.82 -3.48 -112.08 -3.48 -147.19 0 -4.06 0.43 -12.46 1.47 -18.67 2.33 -13.97 1.97 -17.59 2.08 -20.50 0.65 -1.58 -0.83 -2.12 -1.36 -2.94 -2.87 -2.08 -3.88 -2.08 -12.53 0 -25.53 0.32 -2.01 0.50 -3.77 0.39 -3.88 -0.25 -0.22 -20.93 5.96 -25.42 7.65 -10.27 3.81 -14.40 7.54 -20.46 18.42 -2.94 5.28 -3.48 5.96 -6.79 8.58 -7.65 6.03 -21.43 14.04 -24.27 14.04 -1.22 0 -1.26 -0.04 -1.26 -1.33z m69.29 -56.11 c6.03 -1.62 11.13 -3.16 11.34 -3.45 0.22 -0.25 0.57 -1.40 0.83 -2.55 0.25 -1.15 1.33 -5.78 2.44 -10.34 1.08 -4.52 2.41 -10.27 2.98 -12.74 l1.01 -4.49 -5.10 5.21 c-5.49 5.64 -11.85 13.10 -16.98 19.93 -4.77 6.43 -8.47 11.78 -7.93 11.60 0.25 -0.11 5.39 -1.51 11.42 -3.16z"/>
  <path d="M240.50 158.18 c-2.01 -0.72 -3.81 -2.26 -4.70 -4.09 -1.11 -2.26 -1.33 -8.04 -0.47 -11.74 1.69 -7.29 7.72 -15.40 14.72 -19.75 5.28 -3.30 10.48 -4.49 19.78 -4.49 5.71 0 6.86 -0.22 7.58 -1.33 0.32 -0.47 1.90 -4.38 3.55 -8.65 3.63 -9.37 5.60 -13.50 6.86 -14.32 2.01 -1.33 12.31 -1.51 13.57 -0.22 0.36 0.32 0.54 1.22 0.54 2.62 0 1.83 -0.47 3.30 -3.59 11.17 -6.93 17.45 -12.46 33.71 -15.04 44.48 -1.47 5.96 -2.12 6.46 -8.47 6.46 -6.57 0 -7.14 -0.61 -6.93 -7.11 l0.11 -3.91 -1.97 1.80 c-5.21 4.77 -10.52 7.93 -15.15 9.05 -2.76 0.65 -8.62 0.68 -10.38 0.04z m15.08 -14.04 c3.45 -1.76 7.90 -5.17 11.52 -8.83 2.37 -2.33 5.74 -6.46 5.74 -7 0 -0.47 -3.95 0.22 -6.50 1.18 -6.39 2.37 -12.28 8.01 -14.29 13.75 -1.08 3.09 -0.83 3.12 3.52 0.90z"/>
  <path d="M346.41 158.18 c-3.73 -1.33 -5.10 -3.66 -5.28 -9.05 -0.18 -4.49 0.61 -7.72 3.05 -12.60 3.16 -6.43 8.83 -12.13 15.01 -15.19 5.78 -2.84 9.15 -3.23 26.06 -3.12 10.20 0.07 12.89 0.18 13.36 0.57 0.43 0.36 0.61 1.08 0.61 2.58 0 1.72 -0.47 3.34 -2.66 9.19 -3.30 8.83 -4.56 12.57 -6.32 18.88 -0.79 2.73 -1.69 5.53 -2.01 6.25 -0.97 1.97 -2.73 2.62 -7.25 2.62 -4.38 0 -5.82 -0.50 -6.68 -2.33 -0.65 -1.29 -0.75 -5.24 -0.25 -7.47 l0.32 -1.33 -1.80 1.51 c-5.64 4.88 -11.34 8.22 -15.94 9.41 -2.69 0.68 -8.40 0.72 -10.23 0.07z m15.11 -13.71 c4.38 -2.23 10.73 -7.25 14.61 -11.56 2.51 -2.76 4.13 -4.81 3.95 -4.95 -0.04 -0.04 -1.44 0.14 -3.12 0.43 -2.12 0.36 -4.09 1.04 -6.46 2.19 -2.87 1.36 -3.91 2.12 -6.50 4.74 -2.48 2.48 -3.41 3.70 -4.63 6.21 -2.19 4.42 -1.80 4.95 2.15 2.94z"/>
  <path d="M430.53 158.29 c-0.68 -0.18 -1.90 -1.04 -2.76 -1.90 -1.26 -1.26 -1.62 -1.97 -1.97 -3.66 -0.83 -3.99 0.14 -9.05 2.84 -15.04 0.61 -1.29 0.97 -2.33 0.86 -2.33 -0.75 0 -10.12 7.90 -17.77 14.93 -7.72 7.14 -8.26 7.43 -14.58 7.61 -4.20 0.14 -4.85 0.07 -5.46 -0.47 -1.44 -1.29 -1.04 -2.69 5.60 -19.31 3.48 -8.72 6.57 -16.26 6.86 -16.69 1.04 -1.69 3.05 -2.23 8.47 -2.23 6 0 6.35 0.18 6.35 3.52 0 1.65 -0.32 2.80 -1.76 6.10 l-1.80 4.02 2.98 -2.30 c7.47 -5.82 15.83 -10.73 20.18 -11.85 3.27 -0.83 8.62 -0.75 10.09 0.14 1.76 1.04 2.01 1.83 1.83 5.53 -0.18 3.55 -0.86 5.56 -5.06 14.76 -1.08 2.37 -2.23 5.17 -2.55 6.21 -0.50 1.80 -0.50 1.94 0.14 2.58 0.83 0.83 1.04 0.83 5.49 0.39 1.83 -0.18 6.18 -0.43 9.69 -0.57 l6.39 -0.22 -0.11 1.29 -0.11 1.29 -7.36 2.51 c-16.30 5.60 -17.02 5.78 -21.36 5.92 -2.15 0.07 -4.49 -0.04 -5.13 -0.25z"/>
  <path d="M285.13 157.53 c-0.25 -0.25 -0.43 -1.33 -0.43 -2.44 0 -2.12 0.32 -3.09 6.50 -19.75 6.21 -16.77 5.96 -16.26 9.48 -16.91 3.16 -0.57 11.24 -0.29 11.67 0.39 0.47 0.75 0.43 2.44 -0.14 4.02 -0.32 0.90 -0.36 1.26 -0.07 1.08 0.22 -0.14 1.62 -1.08 3.12 -2.08 3.55 -2.37 6.03 -3.12 9.48 -2.94 3.81 0.18 4.24 0.68 4.49 5.06 l0.18 3.30 1.36 -3.45 c1.62 -4.13 2.44 -5.03 5.03 -5.39 2.62 -0.39 8.08 -0.36 9.73 0.04 2.87 0.65 2.76 2.30 -0.72 11.38 -1.51 3.91 -4.09 10.91 -5.78 15.55 -1.65 4.63 -3.41 9.01 -3.88 9.73 -1.40 2.15 -2.91 2.66 -7.97 2.66 -3.88 0 -4.49 -0.07 -5.39 -0.75 -0.97 -0.75 -1.01 -0.86 -1.01 -4.13 0 -3.27 0.11 -3.55 2.23 -9.12 1.22 -3.16 2.62 -6.86 3.16 -8.26 l0.97 -2.51 -1.33 1.36 c-1.18 1.22 -1.47 1.33 -3.23 1.33 -1.76 0 -1.97 -0.11 -2.94 -1.26 l-1.01 -1.26 -1.94 0.90 c-6.46 3.02 -12.67 9.94 -16.19 17.99 -1.72 4.02 -2.23 4.70 -3.84 5.39 -1.54 0.65 -10.88 0.72 -11.52 0.07z"/>
  <path d="M127.99 139.44 c-1.80 -0.93 -3.05 -2.37 -4.34 -5.03 -1.58 -3.16 -1.58 -4.92 -0.07 -5.10 2.41 -0.29 6.03 1.69 7.72 4.20 1.04 1.54 1.22 5.92 0.25 6.28 -0.97 0.36 -2.44 0.22 -3.55 -0.36z"/>
  <path d="M96.11 114.74 c-0.93 -3.16 -2.44 -5.64 -4.56 -7.47 -1.47 -1.26 -1.80 -1.76 -1.80 -2.69 0 -1.11 0.07 -1.18 1.18 -1.18 1.22 0 3.84 1.44 4.99 2.73 1.44 1.62 2.91 5.60 3.09 8.26 l0.18 2.66 -1.22 0 c-1.18 0 -1.26 -0.07 -1.87 -2.30z"/>
  <path d="M337.22 115.96 c-1.69 -0.39 -2.94 -1.33 -3.20 -2.37 -0.68 -2.66 1.29 -8.11 3.66 -10.20 1.69 -1.47 4.31 -1.90 10.38 -1.72 6.28 0.14 7 0.47 7 3.09 0 1.29 -0.39 2.51 -1.80 5.35 -2.12 4.34 -3.23 5.35 -6.32 5.85 -2.44 0.39 -8.04 0.39 -9.73 0z"/>
  <path d="M102.86 93.16 c-3.55 -0.75 -6.43 -1.90 -7.25 -2.87 -1.26 -1.44 -1.11 -4.20 0.43 -8.80 0.68 -2.01 1.51 -4.09 1.80 -4.56 0.54 -0.83 0.54 -0.83 -0.75 -0.83 l-1.33 0 0.22 -1.65 c0.22 -2.12 1.69 -3.99 4.02 -5.17 1.44 -0.72 2.48 -0.90 5.28 -1.01 l3.52 -0.14 0 1.22 c0 1.22 0 1.22 -2.23 1.69 -2.76 0.54 -5.60 1.87 -6.79 3.12 -0.47 0.54 -0.68 0.90 -0.50 0.79 0.22 -0.07 1.01 -0.47 1.80 -0.83 1.04 -0.50 2.44 -0.72 5.06 -0.83 5.64 -0.22 8.40 0.90 8.40 3.37 0 1.11 0.18 1.29 1.83 2.12 3.45 1.76 5.42 4.20 6.89 8.54 0.14 0.32 0.47 0.61 0.79 0.61 0.39 0 0.54 0.39 0.54 1.40 0 1.22 -0.14 1.47 -1.22 1.97 -0.68 0.32 -1.94 0.57 -2.84 0.57 -0.90 0 -2.08 0.18 -2.66 0.39 -3.20 1.29 -11.02 1.72 -15.01 0.86z"/>
 </g>
</svg>